<svg width="100" height="100" viewBox="0 0 100 100" fill="none" xmlns="http://www.w3.org/2000/svg">
<path fill-rule="evenodd" clip-rule="evenodd" d="M39.3442 0C31.4976 0 25.1366 6.15904 25.1366 13.7566V23.2804H49.7267V25.9259H14.2076C6.36098 25.9259 0 32.085 0 39.6825L1.55259e-06 60.3174C1.55259e-06 67.915 6.36098 74.074 14.2076 74.074H22.4044V62.4338C22.4044 54.8363 28.7653 48.6772 36.612 48.6772H62.8415C69.481 48.6772 74.8633 43.4657 74.8633 37.037V13.7566C74.8633 6.15904 68.5024 0 60.6557 0H39.3442ZM36.0656 16.9312C38.7817 16.9312 40.9836 14.7992 40.9836 12.1693C40.9836 9.53938 38.7817 7.4074 36.0656 7.4074C33.3494 7.4074 31.1475 9.53938 31.1475 12.1693C31.1475 14.7992 33.3494 16.9312 36.0656 16.9312Z" fill="url(#paint0_linear_20_332)"/>
<path fill-rule="evenodd" clip-rule="evenodd" d="M60.6558 100C68.5024 100 74.8634 93.841 74.8634 86.2435V76.7197L50.2733 76.7196L50.2733 74.0741L85.7924 74.0741C93.639 74.0741 100 67.9151 100 60.3175V39.6826C100 32.0851 93.639 25.926 85.7924 25.926L77.5956 25.926V37.5662C77.5956 45.1638 71.2347 51.3228 63.388 51.3228L37.1585 51.3228C30.519 51.3228 25.1367 56.5343 25.1367 62.963L25.1367 86.2435C25.1367 93.841 31.4976 100 39.3443 100H60.6558ZM63.9344 83.0689C61.2183 83.0689 59.0164 85.2008 59.0164 87.8308C59.0164 90.4607 61.2183 92.5927 63.9344 92.5927C66.6506 92.5927 68.8525 90.4607 68.8525 87.8308C68.8525 85.2008 66.6506 83.0689 63.9344 83.0689Z" fill="url(#paint1_linear_20_332)"/>
<defs>
<linearGradient id="paint0_linear_20_332" x1="37.4317" y1="0" x2="37.4317" y2="74.074" gradientUnits="userSpaceOnUse">
<stop stop-color="#327EBD"/>
<stop offset="1" stop-color="#1565A7"/>
</linearGradient>
<linearGradient id="paint1_linear_20_332" x1="62.5683" y1="25.926" x2="62.5683" y2="100" gradientUnits="userSpaceOnUse">
<stop stop-color="#FFDA4B"/>
<stop offset="1" stop-color="#F9C600"/>
</linearGradient>
</defs>
</svg>
